<svg xmlns="http://www.w3.org/2000/svg" version="1.1" xmlns:xlink="http://www.w3.org/1999/xlink" xmlns:svgjs="http://svgjs.dev/svgjs" width="1441" height="557" preserveAspectRatio="none" viewBox="0 0 1441 557"><g mask="url(&quot;#SvgjsMask1107&quot;)" fill="none"><rect width="1441" height="557" x="0" y="0" fill="rgba(205, 207, 209, 1)"></rect><path d="M0,534.135C109.909,526.232,219.431,541.089,322.225,501.392C441.808,455.212,574.285,402.989,633.719,289.41C693.708,174.769,682.063,28.486,632.156,-90.89C586.553,-199.971,455.706,-238.468,376.378,-326.134C299.502,-411.091,272.5,-535.858,175.023,-596.073C63.526,-664.949,-71.489,-706.159,-200.376,-682.417C-334.355,-657.737,-470.041,-583.84,-536.62,-464.984C-601.044,-349.974,-530.421,-209.058,-539.213,-77.527C-547.111,40.625,-619.19,153.879,-585.576,267.424C-550.26,386.718,-466.669,498.407,-353.448,549.976C-243.904,599.87,-120.062,542.768,0,534.135" fill="#b7babd"></path><path d="M1441 1195.863C1558.573 1218.3400000000001 1681.7069999999999 1148.6680000000001 1767.785 1065.487 1847.819 988.1469999999999 1847.205 864.788 1889.9470000000001 762.027 1930.816 663.769 2033.344 579.241 2013.5230000000001 474.68399999999997 1993.664 369.929 1863.479 331.998 1793.222 251.798 1723.496 172.204 1698.747 50.548 1602.828 5.8659999999999854 1503.663-40.327999999999975 1380.306-33.325000000000045 1281.374 13.364000000000033 1187.098 57.855999999999995 1152.729 169.31 1086.285 249.63799999999998 1021.7719999999999 327.631 932.582 384.155 896.46 478.707 855.108 586.951 808.861 719.19 869.084 818.185 930.0219999999999 918.356 1087.887 889.5989999999999 1185.728 954.211 1285.523 1020.113 1323.535 1173.406 1441 1195.863" fill="#e3e4e5"></path></g><defs><mask id="SvgjsMask1107"><rect width="1441" height="557" fill="#ffffff"></rect></mask></defs></svg>